<svg width="290" height="72" viewBox="0 0 290 72" class="css-1j8o68f"><defs id="SvgjsDefs6117"><linearGradient id="SvgjsLinearGradient6124"><stop id="SvgjsStop6125" stop-color="#00ddff" offset="0"></stop><stop id="SvgjsStop6126" stop-color="#ff00d4" offset="1"></stop></linearGradient></defs><g id="SvgjsG6118" featurekey="symbolFeature-0" transform="matrix(1.1709366702744097,0,0,1.1709366702744097,-23.20796221411283,-22.62338723275849)" fill="url(#SvgjsLinearGradient6124)"><g xmlns="http://www.w3.org/2000/svg"><path d="M34.41,72.66c0-4.11-2.9-9.12-6.45-11.18c-0.94-0.54-1.83-0.82-2.6-0.82c-0.49,0-0.93,0.11-1.32,0.33   c-0.99,0.57-1.54,1.86-1.54,3.64c0,4.11,2.9,9.12,6.45,11.18c1.54,0.89,2.93,1.06,3.92,0.49C33.86,75.72,34.41,74.43,34.41,72.66z" style="fill: none;"></path><path d="M34.95,58.55c3.68,3.7,6.24,9.21,6.24,14.07c0,2.12-0.51,3.93-1.42,5.31c1.07-0.26,2.21-0.54,2.86-0.74   c2.28-0.69,3.59-3.1,3.59-6.59c0-6.54-4.55-14.5-10.19-17.9C35.51,54.67,35.13,56.63,34.95,58.55z" style="fill: none;"></path><path d="M30.5,57.57c-1.39-0.8-2.71-1.19-3.88-1.19c-2.12,0-3.75,1.26-4.44,3.53c0.26-0.25,0.54-0.48,0.85-0.66   c1.63-0.94,3.74-0.77,5.92,0.49c4.18,2.41,7.45,8.08,7.45,12.91c0,2.52-0.9,4.42-2.54,5.37c-0.42,0.24-0.87,0.4-1.35,0.5   c0.65,0.2,1.28,0.29,1.86,0.29c2.85,0,4.81-2.27,4.81-6.2C39.19,67.08,35.3,60.34,30.5,57.57z" style="fill: none;"></path><path d="M47.3,23.89c-9.85,5.69-17.99,19.01-19.07,30.68c1.07,0.22,2.17,0.63,3.28,1.27c0.56,0.32,1.1,0.7,1.64,1.11   c1.63-11.93,9.92-25.12,19.89-30.88c2.93-1.69,5.83-2.64,8.51-2.8c-0.66-0.38-1.16-0.67-1.34-0.77   C56.82,20.55,52.23,21.04,47.3,23.89z" style="fill: none;"></path><path d="M62.42,37.17c-1.57-0.9-3.06-1.36-4.37-1.36c-0.87,0-1.66,0.2-2.35,0.6c-1.74,1-2.7,3.21-2.7,6.21   c0,6.64,4.68,14.74,10.42,18.05c2.6,1.5,4.98,1.77,6.72,0.77c1.74-1,2.7-3.21,2.7-6.21C72.84,48.59,68.16,40.49,62.42,37.17z" style="fill: none;"></path><path d="M68.16,35.06c-1.94-1.12-3.8-1.48-5.25-1l-1.46,0.45c0.64,0.25,1.3,0.55,1.96,0.93   c6.3,3.64,11.42,12.51,11.42,19.79c0,0.74-0.07,1.43-0.17,2.09c0.43-0.41,0.84-0.81,1.2-1.16c1.06-1.04,1.63-2.75,1.63-4.93   C77.5,45.29,73.31,38.03,68.16,35.06z" style="fill: none;"></path><path d="M69.16,33.33c1,0.58,1.97,1.31,2.89,2.15c-0.53-4.25-2.27-7.43-5.07-9.05c-0.38-0.22-0.78-0.41-1.19-0.57   c0.9,1.89,1.44,4.14,1.63,6.63C67.99,32.71,68.58,32.99,69.16,33.33z" style="fill: none;"></path><g><path d="M30.5,57.57c-1.39-0.8-2.71-1.19-3.88-1.19c-2.12,0-3.75,1.26-4.44,3.53c0.26-0.25,0.54-0.48,0.85-0.66    c1.63-0.94,3.74-0.77,5.92,0.49c4.18,2.41,7.45,8.08,7.45,12.91c0,2.52-0.9,4.42-2.54,5.37c-0.42,0.24-0.87,0.4-1.35,0.5    c0.65,0.2,1.28,0.29,1.86,0.29c2.85,0,4.81-2.27,4.81-6.2C39.19,67.08,35.3,60.34,30.5,57.57z" style="fill: none;"></path><path d="M34.41,72.66c0-4.11-2.9-9.12-6.45-11.18c-0.94-0.54-1.83-0.82-2.6-0.82c-0.49,0-0.93,0.11-1.32,0.33    c-0.99,0.57-1.54,1.86-1.54,3.64c0,4.11,2.9,9.12,6.45,11.18c1.54,0.89,2.93,1.06,3.92,0.49C33.86,75.72,34.41,74.43,34.41,72.66z    " style="fill: none;"></path><path d="M47.3,23.89c-9.85,5.69-17.99,19.01-19.07,30.68c1.07,0.22,2.17,0.63,3.28,1.27c0.56,0.32,1.1,0.7,1.64,1.11    c1.63-11.93,9.92-25.12,19.89-30.88c2.93-1.69,5.83-2.64,8.51-2.8c-0.66-0.38-1.16-0.67-1.34-0.77    C56.82,20.55,52.23,21.04,47.3,23.89z" style="fill: none;"></path><path d="M34.95,58.55c3.68,3.7,6.24,9.21,6.24,14.07c0,2.12-0.51,3.93-1.42,5.31c1.07-0.26,2.21-0.54,2.86-0.74    c2.28-0.69,3.59-3.1,3.59-6.59c0-6.54-4.55-14.5-10.19-17.9C35.51,54.67,35.13,56.63,34.95,58.55z" style="fill: none;"></path><path d="M69.16,33.33c1,0.58,1.97,1.31,2.89,2.15c-0.53-4.25-2.27-7.43-5.07-9.05c-0.38-0.22-0.78-0.41-1.19-0.57    c0.9,1.89,1.44,4.14,1.63,6.63C67.99,32.71,68.58,32.99,69.16,33.33z" style="fill: none;"></path><path d="M68.16,35.06c-1.94-1.12-3.8-1.48-5.25-1l-1.46,0.45c0.64,0.25,1.3,0.55,1.96,0.93    c6.3,3.64,11.42,12.51,11.42,19.79c0,0.74-0.07,1.43-0.17,2.09c0.43-0.41,0.84-0.81,1.2-1.16c1.06-1.04,1.63-2.75,1.63-4.93    C77.5,45.29,73.31,38.03,68.16,35.06z" style="fill: none;"></path><path d="M62.42,37.17c-1.57-0.9-3.06-1.36-4.37-1.36c-0.87,0-1.66,0.2-2.35,0.6c-1.74,1-2.7,3.21-2.7,6.21    c0,6.64,4.68,14.74,10.42,18.05c2.6,1.5,4.98,1.77,6.72,0.77c1.74-1,2.7-3.21,2.7-6.21C72.84,48.59,68.16,40.49,62.42,37.17z" style="fill: none;"></path><path d="M79.5,51.23c0-0.22-0.02-0.46-0.03-0.68c0.01-0.21,0.03-0.42,0.03-0.64c0-4.24-2.17-9.14-5.28-12.64    c-0.23-5.92-2.42-10.36-6.23-12.57c0,0,0,0,0,0c0,0-6.07-3.53-6.78-3.94c-4.04-2.32-9.33-1.82-14.9,1.39    c-9.44,5.45-17.37,17.55-19.57,28.95c0,0,0,0-0.01,0c-1.2,1.02-2.02,1.95-3.91,4.22c-0.35,0.42-0.66,0.8-0.93,1.12    c-1.31,1.44-2.07,3.57-2.07,6.14c0,6.27,4.25,13.64,9.69,16.78c1.67,0.96,3.31,1.45,4.88,1.45c0.52,0,1.01-0.05,1.49-0.16    c0.04,0,0.08,0.01,0.11,0.01c0.51,0,1-0.05,1.48-0.16c0.05,0,0.1-0.01,0.15-0.02c0.17-0.04,4.08-0.91,5.6-1.38    c3.14-0.95,5.01-4.13,5.01-8.51c0-7.27-5.12-16.15-11.42-19.79c-0.06-0.03-0.12-0.06-0.18-0.09c3.05-9.35,9.7-18.47,17.41-22.92    c3.23-1.87,6.37-2.72,9.11-2.51c1.18,1.75,1.94,4.01,2.22,6.65c-1.08-0.16-2.12-0.09-3.06,0.22l-6.38,1.98    c-0.02,0.01-0.03,0.02-0.05,0.03c-0.41,0.14-0.81,0.3-1.18,0.51c-2.39,1.38-3.7,4.2-3.7,7.94c0,7.27,5.12,16.15,11.42,19.79    c1.88,1.08,3.71,1.63,5.38,1.63c1.21,0,2.34-0.29,3.34-0.87c0.41-0.24,0.77-0.53,1.11-0.84c0.02-0.02,0.05-0.03,0.08-0.05    c0.02-0.02,1.39-1.29,2.83-2.66c0.52,2.53,0.19,5.21-1.02,7.59c-1.81,3.56-5.29,5.89-9.22,6.28c-0.62-2.03-2.93-3.5-5.78-3.5    c-3.34,0-5.95,2.01-5.95,4.58c0,2.53,2.67,4.58,5.95,4.58c2.86,0,5.25-1.56,5.82-3.64c4.68-0.41,8.83-3.19,10.97-7.4    c1.61-3.17,1.89-6.78,0.9-10.08c0.16-0.15,0.31-0.3,0.45-0.44C78.73,56.16,79.5,53.96,79.5,51.23z M28.95,75.81    c-3.56-2.05-6.45-7.07-6.45-11.18c0-1.77,0.55-3.06,1.54-3.64c0.38-0.22,0.83-0.33,1.32-0.33c0.77,0,1.66,0.27,2.6,0.82    c3.56,2.05,6.45,7.07,6.45,11.18c0,1.77-0.55,3.06-1.54,3.64C31.88,76.87,30.49,76.69,28.95,75.81z M34.38,78.82    c-0.59,0-1.21-0.1-1.86-0.29c0.47-0.1,0.93-0.26,1.35-0.5c1.64-0.94,2.54-2.85,2.54-5.37c0-4.83-3.27-10.5-7.45-12.91    c-2.18-1.26-4.28-1.43-5.92-0.49c-0.31,0.18-0.59,0.41-0.85,0.66c0.69-2.27,2.32-3.53,4.44-3.53c1.17,0,2.49,0.38,3.88,1.19    c4.8,2.77,8.69,9.5,8.69,15.04C39.19,76.55,37.23,78.82,34.38,78.82z M46.23,70.6c0,3.5-1.31,5.9-3.59,6.59    c-0.64,0.2-1.79,0.48-2.86,0.74c0.91-1.38,1.42-3.2,1.42-5.31c0-4.86-2.56-10.37-6.24-14.07c0.17-1.92,0.55-3.88,1.09-5.85    C41.68,56.1,46.23,64.06,46.23,70.6z M53.04,26.07c-9.98,5.76-18.27,18.95-19.89,30.88c-0.53-0.41-1.08-0.79-1.64-1.11    c-1.11-0.64-2.21-1.05-3.28-1.27c1.08-11.68,9.22-24.99,19.07-30.68c4.93-2.85,9.51-3.34,12.91-1.39c0.18,0.1,0.68,0.39,1.34,0.77    C58.87,23.43,55.97,24.38,53.04,26.07z M66.98,26.43c2.8,1.62,4.54,4.8,5.07,9.05c-0.92-0.84-1.88-1.57-2.89-2.15    c-0.59-0.34-1.17-0.62-1.75-0.84c-0.19-2.49-0.73-4.74-1.63-6.63C66.2,26.02,66.6,26.21,66.98,26.43z M70.14,61.43    c-1.74,1-4.13,0.73-6.72-0.77c-5.75-3.32-10.42-11.42-10.42-18.05c0-3,0.96-5.2,2.7-6.21c0.69-0.4,1.48-0.6,2.35-0.6    c1.32,0,2.81,0.46,4.37,1.36c5.75,3.32,10.42,11.42,10.42,18.05C72.84,58.22,71.88,60.42,70.14,61.43z M75.87,56.16    c-0.36,0.35-0.77,0.75-1.2,1.16c0.1-0.66,0.17-1.35,0.17-2.09c0-7.27-5.12-16.15-11.42-19.79c-0.66-0.38-1.31-0.68-1.96-0.93    l1.46-0.45c1.45-0.47,3.31-0.12,5.25,1c5.15,2.97,9.34,10.23,9.34,16.17C77.5,53.41,76.94,55.11,75.87,56.16z"></path></g></g><path xmlns="http://www.w3.org/2000/svg" d="M68.4,55.33c0,0,0.01-0.01,0.01-0.01c0.07-0.06,0.13-0.13,0.17-0.21c0,0,0-0.01,0.01-0.01c0-0.01,0.01-0.01,0.01-0.02  c0.49-0.82,0.75-1.84,0.75-3.03c0-3.84-2.6-8.35-5.93-10.27c-1.05-0.6-2.06-0.89-3.04-0.87c-0.02,0-0.03,0.01-0.04,0.01  c-0.01,0-0.03,0-0.04,0c-1.03,0.12-1.93,0.52-2.61,1.18c-1.03,0.98-1.23,2.18-1.32,2.76c-0.59,3.54,1.57,8.99,5.62,11.15  c0.97,0.52,1.95,0.79,2.85,0.79c0.12,0,0.23,0,0.34-0.01C66.64,56.66,67.74,55.93,68.4,55.33z M64.85,54.79  c-0.55,0.03-1.25-0.19-1.93-0.55c-3.16-1.69-5.06-6.25-4.59-9.06c0.06-0.35,0.15-0.89,0.48-1.36c-0.02,0.2-0.02,0.41-0.02,0.62  c0,3.84,2.6,8.35,5.93,10.27C64.76,54.75,64.8,54.77,64.85,54.79z"></path></g><g id="SvgjsG6119" featurekey="nameFeature-0" transform="matrix(1.0510477279207968,0,0,1.0510477279207968,86.9974715138096,-0.011687645602410868)" fill="#ffffff"><path d="M28.571 11.428999999999998 l0 3.4286 l-6.6857 10.857 l6.6857 10.857 l0 3.4286 l-6.8571 0 l-6.5143 -11.143 l-4.9143 0 l0 11.143 l-7.4286 0 l0 -28.571 l7.4286 0 l0 11.143 l4.9143 0 l6.5143 -11.143 l6.8571 0 z M34.285671428571426 35.7143 l0 -24.286 l7.4286 0 l0 22.286 l15.429 0 l0 6.2857 l-18.571 0 z M62.28567142857143 40 l0 -24.286 l4.2857 -4.2857 l16.571 0 l4.2857 4.2857 l0 24.286 l-7.4286 0 l0 -8 l-10.286 0 l0 8 l-7.4286 0 z M69.71457142857143 25.714 l10.286 0 l0 -8 l-10.286 0 l0 8 z M111.71385714285714 11.428999999999998 l7.4286 0 l0 28.571 l-6.5714 0 l-11.143 -16 l0 16 l-7.4286 0 l0 -28.571 l6.5714 0 l11.143 15.886 l0 -15.886 z M123.42857285714287 33.7143 l0 6.2857 l7.4286 0 l0 -6.2857 l-7.4286 0 z M153.14271428571428 17.714 l-10.571 0 l0 16 l10.857 0 l0 -4.8571 l-6.5714 0 l0 -6.2857 l14 0 l0 13.143 l-4.2857 4.2857 l-17.143 0 l-4.2857 -4.2857 l0 -20 l4.2857 -4.2857 l17.143 0 l4.2857 4.2857 l0 4.2857 l-5.4286 0 z M185.42842857142855 17.714 l-10.571 0 l0 16 l10.857 0 l0 -4.8571 l-6.5714 0 l0 -6.2857 l14 0 l0 13.143 l-4.2857 4.2857 l-17.143 0 l-4.2857 -4.2857 l0 -20 l4.2857 -4.2857 l17.143 0 l4.2857 4.2857 l0 4.2857 l-5.4286 0 z"></path></g><g id="SvgjsG6120" featurekey="sloganFeature-0" transform="matrix(0.5387006116441728,0,0,0.5387006116441728,90,48.76779658700743)" fill="#ffffff"><path d="M8.68 12.98 c0.7 0.54 1.16 1.36 1.16 2.4 l0 1.68 c0 1.7 -1.22 2.92 -2.94 2.92 l-6.9 0 l0 -13.98 l6.86 0 c1.72 0 2.94 1.22 2.94 2.94 l0 1.68 c0 1 -0.42 1.84 -1.12 2.36 z M3.5 9.08 l0 2.52 l1.96 0 c0.54 0 0.84 -0.14 0.84 -0.86 l0 -0.82 c0 -0.7 -0.3 -0.84 -0.84 -0.84 l-1.96 0 z M6.34 16.06 l0 -0.82 c0 -0.7 -0.3 -0.84 -0.84 -0.84 l-2 0 l0 2.5 l2 0 c0.54 0 0.84 -0.14 0.84 -0.84 z M20.577 6 l3.5 0 l0 11.04 c0 1.72 -1.22 2.94 -2.94 2.94 l-1.24 0 l-2.66 0 c-1.72 0 -2.94 -1.22 -2.94 -2.94 l0 -11.04 l3.5 0 l0 9.64 c0 0.7 0.3 0.84 0.84 0.84 l1.1 0 c0.54 0 0.84 -0.14 0.84 -0.84 l0 -9.64 z M28.534 6 l3.5 0 l0 13.98 l-3.5 0 l0 -13.98 z M44.171 16.9 l0 3.08 l-7.68 0 l0 -13.98 l3.5 0 l0 10.9 l4.18 0 z M55.488 6 c1.72 0 2.94 1.22 2.94 2.94 l0 8.12 c0 1.7 -1.22 2.92 -2.94 2.92 l-6.86 0 l0 -13.98 l6.86 0 z M54.928 15.64 l0 -5.3 c0 -0.7 -0.3 -0.84 -0.84 -0.84 l-1.96 0 l0 6.98 l1.96 0 c0.54 0 0.84 -0.14 0.84 -0.84 z M77.202 6.02 l3.5 0 l-3.42 9.4 l0 4.58 l-3.5 0 l0 -4.58 l-3.44 -9.4 l3.5 0 l1.68 5.42 z M91.999 6 c1.72 0 2.94 1.22 2.94 2.94 l0 8.12 c0 1.7 -1.22 2.92 -2.94 2.92 l-1.24 0 l-2.66 0 c-1.72 0 -2.94 -1.22 -2.94 -2.92 l0 -8.12 c0 -1.72 1.22 -2.94 2.94 -2.94 l1.26 0 l2.64 0 z M91.439 15.64 l0 -5.3 c0 -0.7 -0.3 -0.84 -0.84 -0.84 l-1.1 0 c-0.54 0 -0.84 0.14 -0.84 0.84 l0 5.3 c0 0.7 0.3 0.84 0.84 0.84 l1.1 0 c0.54 0 0.84 -0.14 0.84 -0.84 z M105.67599999999999 6 l3.5 0 l0 11.04 c0 1.72 -1.22 2.94 -2.94 2.94 l-1.24 0 l-2.66 0 c-1.72 0 -2.94 -1.22 -2.94 -2.94 l0 -11.04 l3.5 0 l0 9.64 c0 0.7 0.3 0.84 0.84 0.84 l1.1 0 c0.54 0 0.84 -0.14 0.84 -0.84 l0 -9.64 z M123.43299999999998 12.86 c0 1.26 -0.64 2.24 -1.68 2.7 l1.68 4.42 l-3.5 0 l-1.58 -4.18 l-1.22 0 l0 4.18 l-3.5 0 l0 -13.98 l6.86 0 c1.72 0 2.94 1.22 2.94 2.94 l0 3.92 z M119.93299999999998 11.46 l0 -1.12 c0 -0.7 -0.3 -0.84 -0.84 -0.84 l-1.96 0 l0 2.8 l1.96 0 c0.54 0 0.84 -0.14 0.84 -0.84 z M145.12699999999998 10.92 l-3.5 0 l0 -0.58 c0 -0.7 -0.3 -0.84 -0.84 -0.84 l-1.1 0 c-0.54 0 -0.84 0.14 -0.84 0.84 l0 5.3 c0 0.7 0.3 0.84 0.84 0.84 l1.1 0 c0.54 0 0.84 -0.14 0.84 -0.84 l-1.38 -0.02 l0 -3.06 l4.88 0 l0 2.52 l0 1.98 c0 1.7 -1.22 2.92 -2.94 2.92 l-1.24 0 l-2.66 0 c-1.72 0 -2.94 -1.22 -2.94 -2.92 l0 -8.12 c0 -1.72 1.22 -2.94 2.94 -2.94 l1.26 0 l2.64 0 c1.72 0 2.94 1.22 2.94 2.94 l0 1.98 z M155.884 19.98 l-0.28 -2.08 l-2.24 0 l-0.28 2.08 l-3.5 0 l2.46 -13.98 l4.88 0 l2.46 13.98 l-3.5 0 z M153.74399999999997 15.1 l1.48 0 l-0.74 -5.56 z M175.18099999999998 6 l0.7 0 l0 13.98 l-3.5 0 l0 -6.58 l-1.14 6.58 l-2.8 0 l-1.24 -6.66 l0.14 6.66 l-3.5 0 l0 -13.98 l0.68 0 l2.82 0 l0.68 0 l1.82 7.78 l1.82 -7.78 l3.52 0 z M180.33799999999997 6 l3.5 0 l0 13.98 l-3.5 0 l0 -13.98 z M194.59499999999997 6 l3.5 0 l0 13.98 l-3.5 0 l-2.8 -6.98 l0 6.98 l-3.5 0 l0 -13.98 l3.5 0 l2.8 7 l0 -7 z M212.33199999999997 10.92 l-3.5 0 l0 -0.58 c0 -0.7 -0.3 -0.84 -0.84 -0.84 l-1.1 0 c-0.54 0 -0.84 0.14 -0.84 0.84 l0 5.3 c0 0.7 0.3 0.84 0.84 0.84 l1.1 0 c0.54 0 0.84 -0.14 0.84 -0.84 l-1.38 -0.02 l0 -3.06 l4.88 0 l0 2.52 l0 1.98 c0 1.7 -1.22 2.92 -2.94 2.92 l-1.24 0 l-2.66 0 c-1.72 0 -2.94 -1.22 -2.94 -2.92 l0 -8.12 c0 -1.72 1.22 -2.94 2.94 -2.94 l1.26 0 l2.64 0 c1.72 0 2.94 1.22 2.94 2.94 l0 1.98 z M233.34599999999995 9.08 l-5.6 0 l0 2.38 l4.9 0 l0 3.08 l-4.9 0 l0 5.46 l-3.5 0 l0 -14 l9.1 0 l0 3.08 z M244.10299999999995 19.98 l-0.28 -2.08 l-2.24 0 l-0.28 2.08 l-3.5 0 l2.46 -13.98 l4.88 0 l2.46 13.98 l-3.5 0 z M241.96299999999994 15.1 l1.48 0 l-0.74 -5.56 z M263.3999999999999 6 l0.7 0 l0 13.98 l-3.5 0 l0 -6.58 l-1.14 6.58 l-2.8 0 l-1.24 -6.66 l0.14 6.66 l-3.5 0 l0 -13.98 l0.68 0 l2.82 0 l0.68 0 l1.82 7.78 l1.82 -7.78 l3.52 0 z M268.55699999999996 6 l3.5 0 l0 13.98 l-3.5 0 l0 -13.98 z M284.19399999999996 16.9 l0 3.08 l-7.68 0 l0 -13.98 l3.5 0 l0 10.9 l4.18 0 z M293.51099999999997 6.02 l3.5 0 l-3.42 9.4 l0 4.58 l-3.5 0 l0 -4.58 l-3.44 -9.4 l3.5 0 l1.68 5.42 z"></path></g></svg>