<svg width="18" height="18" viewBox="0 0 18 18" fill="none" xmlns="http://www.w3.org/2000/svg">
<circle cx="9" cy="9" r="9" fill="white"/>
<g clip-path="url(#clip0_9414_49774)">
<path d="M9.90815 5.57101L10.6924 6.42815H12.4282V11.571H5.57101V6.42815H7.30672L8.09101 5.57101H9.90815ZM10.2853 4.71387H7.71387L6.92958 5.57101H5.57101C5.09958 5.57101 4.71387 5.95672 4.71387 6.42815V11.571C4.71387 12.0424 5.09958 12.4282 5.57101 12.4282H12.4282C12.8996 12.4282 13.2853 12.0424 13.2853 11.571V6.42815C13.2853 5.95672 12.8996 5.57101 12.4282 5.57101H11.0696L10.2853 4.71387ZM8.99958 7.71387C9.70672 7.71387 10.2853 8.29244 10.2853 8.99958C10.2853 9.70672 9.70672 10.2853 8.99958 10.2853C8.29244 10.2853 7.71387 9.70672 7.71387 8.99958C7.71387 8.29244 8.29244 7.71387 8.99958 7.71387ZM8.99958 6.85672C7.81672 6.85672 6.85672 7.81672 6.85672 8.99958C6.85672 10.1824 7.81672 11.1424 8.99958 11.1424C10.1824 11.1424 11.1424 10.1824 11.1424 8.99958C11.1424 7.81672 10.1824 6.85672 8.99958 6.85672Z" fill="#9CA3AF"/>
</g>
<defs>
<clipPath id="clip0_9414_49774">
<rect width="10.2857" height="10.2857" fill="white" transform="translate(3.85693 3.85693)"/>
</clipPath>
</defs>
</svg>
